<svg width="96" height="18" viewBox="0 0 96 18" fill="none" xmlns="http://www.w3.org/2000/svg">
<path d="M11.314 3.21778V18H7.50297V3.21778H0V0H18.8492V3.21778H11.314Z" fill="#30333A"/>
<path d="M45.8032 10.1511H45.7549V14.6104H45.8032V10.1511Z" fill="#30333A"/>
<path d="M45.8032 3.0637H45.7549V7.08148H45.8032V3.0637Z" fill="#30333A"/>
<path d="M24.3244 0H20.5906V18H24.3244V0Z" fill="#30333A"/>
<path d="M35.4613 8.72C36.2616 8.64603 37.0041 8.3032 37.5471 7.75704C38.0605 7.17262 38.3198 6.43343 38.2745 5.68296V3.49333C38.2745 2.27852 37.9913 1.38963 37.4087 0.826667C36.8261 0.263704 35.9023 0 34.6083 0H25.4509V2.93037H33.0183C33.662 2.93037 34.132 3.02815 34.3895 3.22667C34.5266 3.35762 34.6311 3.51454 34.6956 3.68649C34.7601 3.85844 34.783 4.04127 34.7628 4.22222V5.92593C34.7836 6.10851 34.7607 6.29307 34.6956 6.4666C34.6305 6.64014 34.5249 6.79844 34.3862 6.93037C34.1287 7.12 33.6717 7.22667 33.015 7.22667H25.4509V10.1896H33.0183C33.7393 10.1896 34.2253 10.3052 34.4764 10.5393C34.7274 10.7733 34.8562 11.1911 34.8562 11.7896V13.1526C34.8562 13.7452 34.7339 14.1748 34.4764 14.4119C34.2189 14.6489 33.7393 14.7704 33.0183 14.7704H25.4509V18H33.588C35.1974 18 36.4141 17.7037 37.2091 17.1319C38.0041 16.56 38.4033 15.6681 38.4033 14.4652V12.1778C38.4458 11.3371 38.1756 10.5083 37.6372 9.82815C37.0985 9.20968 36.3167 8.81154 35.4613 8.72Z" fill="#30333A"/>
<path d="M58.852 14.6104H46.9297V18H58.852V14.6104Z" fill="#30333A"/>
<path d="M53.3093 7.08445H46.9297V10.1511H53.3093V7.08445Z" fill="#30333A"/>
<path d="M58.6943 0H46.9297V3.0637H58.6943V0Z" fill="#30333A"/>
<path d="M45.7548 14.6104V10.1511H45.8031V7.08444H45.7548V3.0637H45.8031V0H41.9502V18H45.8031V14.6104H45.7548Z" fill="#30333A"/>
<path d="M65.8788 14.6104V0H62.0742V18H65.9013V14.6104H65.8788Z" fill="#30333A"/>
<path d="M78.1519 14.6104H67.0278V18H78.1519V14.6104Z" fill="#30333A"/>
<path d="M96.0001 14.6104H84.8406V18H96.0001V14.6104Z" fill="#30333A"/>
<path d="M83.7106 0H79.9221V18H83.7106V0Z" fill="#30333A"/>
</svg>
